<svg xmlns="http://www.w3.org/2000/svg" viewBox="0 0 88.4 41.62"><defs><style>.cls-1{font-size:48px;font-family:QuantumRegular, Quantum;}.cls-1,.cls-2,.cls-3{fill:#fff;}.cls-3{stroke:#fff;stroke-miterlimit:50;stroke-width:2px;}</style></defs><g id="Capa_2" data-name="Capa 2"><g id="Capa_1-2" data-name="Capa 1"><text class="cls-1" transform="translate(24.39 40.49)">L</text><path class="cls-2" d="M27.94,39.51l-21.89-10V25.73L27.94,15.25v5.58l-15.61,6.7v.12l15.61,6.28Z" transform="translate(-6.05 -2.58)"/><path class="cls-2" d="M94.45,29l-22,10V33.47l15.77-6.26v-.09L72.44,20.44V14.81l22,10.43Z" transform="translate(-6.05 -2.58)"/><g id="SVGRepo_iconCarrier" data-name="SVGRepo iconCarrier"><path class="cls-3" d="M69.21,10.05h-6L60,27.29s0,.09,0,.1h3.71s0,0,0,.08v0l-2.86,15.2a.53.53,0,0,0,.14.49c.09,0,.19,0,.25-.14L70,22a.11.11,0,0,0,0-.1l0,0H66a.08.08,0,0,1,0-.09v0l3.25-11.6a.1.1,0,0,0,0-.09Z" transform="translate(-6.05 -2.58)"/></g></g></g></svg>